<?xml version="1.0" encoding="UTF-8"?>
<svg width="128px" height="128px" viewBox="0 0 128 128" version="1.1" xmlns="http://www.w3.org/2000/svg" xmlns:xlink="http://www.w3.org/1999/xlink">
    <!-- Generator: Sketch 49.3 (51167) - http://www.bohemiancoding.com/sketch -->
    <title>icon@1x</title>
    <desc>Created with Sketch.</desc>
    <defs>
        <linearGradient x1="17.7279924%" y1="0%" x2="89.6334044%" y2="178.411251%" id="linearGradient-1">
            <stop stop-color="#4E9EFF" offset="0%"></stop>
            <stop stop-color="#6993FF" offset="26.5872805%"></stop>
            <stop stop-color="#B275FF" offset="100%"></stop>
        </linearGradient>
        <linearGradient x1="50%" y1="-15.3127526%" x2="50%" y2="99.6173469%" id="linearGradient-2">
            <stop stop-color="#425366" offset="0%"></stop>
            <stop stop-color="#1C242E" offset="100%"></stop>
        </linearGradient>
        <linearGradient x1="17.7279924%" y1="0%" x2="122.191211%" y2="215.030484%" id="linearGradient-3">
            <stop stop-color="#4E9EFF" offset="0%"></stop>
            <stop stop-color="#6993FF" offset="26.5872805%"></stop>
            <stop stop-color="#B275FF" offset="100%"></stop>
        </linearGradient>
    </defs>
    <g id="icon" stroke="none" stroke-width="1" fill="none" fill-rule="evenodd">
        <g id="LocusLabs" transform="translate(42.666667, 57.173333)">
            <path d="M7.55200014e-05,0.54366849 L2.22980356,0.54366849 L2.22980356,11.2021839 L8.90010769,11.2021839 L8.90010769,13.2321615 L7.55200014e-05,13.2321615 L7.55200014e-05,0.54366849 Z M19.9916548,8.50090896 L19.9916548,8.46503696 C19.9916548,5.74593931 22.0941316,3.46221447 24.9582277,3.46221447 C26.7710853,3.46221447 27.8948229,4.13283208 28.7829382,5.1115713 L27.4235781,6.57968013 C26.7525829,5.87281291 26.0457157,5.3834433 24.9401029,5.3834433 C23.3447428,5.3834433 22.1847556,6.76130573 22.1847556,8.42878736 L22.1847556,8.46503696 C22.1847556,10.1687682 23.3632452,11.546253 25.0488517,11.546253 C26.0819653,11.546253 26.8435845,11.0568834 27.5323269,10.3496386 L28.8554374,11.6553794 C27.9129477,12.7066178 26.8069573,13.4493571 24.9401029,13.4493571 C22.0941316,13.4493571 19.9916548,11.2200066 19.9916548,8.50090896 Z M29.6702604,9.75170899 L29.6702604,3.66139847 L31.8637389,3.66139847 L31.8637389,9.09921617 C31.8637389,10.5854498 32.6068557,11.437693 33.9118413,11.437693 C35.1805773,11.437693 36.0686925,10.5492002 36.0686925,9.06296657 L36.0686925,3.66139847 L38.262171,3.66139847 L38.262171,13.2320483 L36.0686925,13.2320483 L36.0686925,11.745437 C35.4524493,12.6520546 34.5643341,13.4314211 33.0781005,13.4314211 C30.9208716,13.4314211 29.6702604,11.9810594 29.6702604,9.75170899 Z M39.1493422,11.9811727 L40.1280814,10.4949391 C41.1615726,11.2743055 42.2853103,11.6734287 43.2640495,11.6734287 C44.2065391,11.6734287 44.7502831,11.2743055 44.7502831,10.6399375 L44.7502831,10.6040655 C44.7502831,9.86057107 43.7352943,9.60682386 42.6115567,9.26245266 C41.1978222,8.86370705 39.620587,8.28371344 39.620587,6.452731 L39.620587,6.416859 C39.620587,4.60400137 41.1249454,3.49838855 43.0284271,3.49838855 C44.2246639,3.49838855 45.5296495,3.91525896 46.5450159,4.58587657 L45.6750255,6.144987 C44.7502831,5.58311819 43.7715439,5.23874698 42.9740527,5.23874698 C42.122187,5.23874698 41.6328174,5.63711499 41.6328174,6.1989838 L41.6328174,6.2352334 C41.6328174,6.92397581 42.6659311,7.21435022 43.7896687,7.57684623 C45.1852783,8.01184143 46.7625135,8.64620945 46.7625135,10.3684431 L46.7625135,10.4043151 C46.7625135,12.4161679 45.2037807,13.4134095 43.2096751,13.4134095 C41.850315,13.4134095 40.345579,12.9240399 39.1493422,11.9811727 Z" id="Combined-Shape" fill="#333333"></path>
            <path d="M48.32068,0.54366849 L49.7525392,0.54366849 L49.7525392,11.9090511 L56.8944657,11.9090511 L56.8944657,13.2321615 L48.32068,13.2321615 L48.32068,0.54366849 Z M57.5098405,10.5132149 L57.5098405,10.4765877 C57.5098405,8.46511248 59.1410725,7.41387406 61.5157989,7.41387406 C62.7120358,7.41387406 63.5457766,7.57699727 64.3795174,7.81261967 L64.3795174,7.52262286 C64.3795174,5.85476363 63.3645286,4.98477322 61.6060453,4.98477322 C60.5004325,4.98477322 59.6304421,5.25664522 58.7604517,5.65539083 L58.3435813,4.51352841 C59.3766949,4.0422836 60.3735589,3.71603719 61.7514213,3.71603719 C63.0745318,3.71603719 64.1076454,4.0785332 64.778263,4.74915081 C65.4307558,5.40164362 65.7573798,6.30788364 65.7573798,7.50412046 L65.7573798,13.231935 L64.3795174,13.231935 L64.3795174,11.8363253 C63.7270246,12.6700662 62.6576614,13.4313078 61.0079269,13.4313078 C59.2498213,13.4313078 57.5098405,12.4344438 57.5098405,10.5132149 Z M64.3976422,9.78822291 L64.3976422,8.91785489 C63.7088998,8.71848209 62.8026598,8.51948688 61.6604197,8.51948688 C59.9204389,8.51948688 58.9235749,9.2803509 58.9235749,10.4044661 L58.9235749,10.4407157 C58.9235749,11.6188277 60.0110629,12.3075702 61.2801765,12.3075702 C63.0020326,12.3075702 64.3976422,11.2744565 64.3976422,9.78822291 Z M69.0191264,11.4376553 L69.0191264,13.2320105 L67.6235168,13.2320105 L67.6235168,0.000151040003 L69.0191264,0.000151040003 L69.0191264,5.74609035 C69.7803681,4.62235273 70.8863585,3.66136071 72.6082145,3.66136071 C74.8560674,3.66136071 77.0854178,5.43796874 77.0854178,8.5191848 L77.0854178,8.5554344 C77.0854178,11.6185257 74.8741922,13.4313833 72.6082145,13.4313833 C70.8678561,13.4313833 69.7441185,12.4888937 69.0191264,11.4376553 Z M75.6535586,8.5735592 L75.6535586,8.5373096 C75.6535586,6.32608396 74.1310753,4.91234953 72.3544673,4.91234953 C70.6141089,4.91234953 68.964752,6.38045836 68.964752,8.5191848 L68.964752,8.5554344 C68.964752,10.730788 70.6141089,12.1807721 72.3544673,12.1807721 C74.1669473,12.1807721 75.6535586,10.8395368 75.6535586,8.5735592 Z M77.79119,12.0357737 L78.4980572,11.0385321 C79.5134236,11.8001513 80.6367836,12.2351465 81.742774,12.2351465 C82.8661341,12.2351465 83.6825053,11.6551529 83.6825053,10.7489128 L83.6825053,10.7126632 C83.6825053,9.76979603 82.5765149,9.40730002 81.3436508,9.06292881 C79.8759196,8.64605841 78.24431,8.1389416 78.24431,6.41670796 L78.24431,6.38045836 C78.24431,4.76735113 79.5855452,3.69798791 81.4342748,3.69798791 C82.5765149,3.69798791 83.8452509,4.09673352 84.8058653,4.73072393 L84.1714973,5.78233995 C83.3015069,5.22047114 82.3046429,4.87609993 81.3984028,4.87609993 C80.2924124,4.87609993 79.5855452,5.45609354 79.5855452,6.23545996 L79.5855452,6.27170956 C79.5855452,7.15982478 80.7455324,7.50419598 81.9965213,7.88519439 C83.4465053,8.319812 85.0052381,8.88168081 85.0052381,10.5672872 L85.0052381,10.6039144 C85.0052381,12.3801449 83.5371293,13.4132585 81.6698972,13.4132585 C80.3290396,13.4132585 78.8424284,12.8876393 77.79119,12.0357737 Z" id="Labs" fill="#666666"></path>
            <path d="M17.9165162,4.91076361 L16.0281385,7.52073486 C16.1769129,7.80091407 16.2690474,8.11545488 16.2690474,8.45529488 C16.2690474,9.5627957 15.3707369,10.4611061 14.2628585,10.4611061 C13.1546025,10.4611061 12.2562921,9.5627957 12.2562921,8.45529488 C12.2562921,7.34703886 13.1546025,6.44872844 14.2628585,6.44872844 C14.3300713,6.44872844 14.3935081,6.46194444 14.4592105,6.46874124 L16.3415466,3.86707719 C15.7185065,3.60728839 15.0237225,3.46228999 14.2775849,3.46228999 C11.3409897,3.46228999 9.16601362,5.72789003 9.16601362,8.46511248 L9.16601362,8.50098448 C9.16601362,11.2200821 11.3232425,13.4494326 14.2413353,13.4494326 C17.1956778,13.4494326 19.371409,11.1838325 19.371409,8.46511248 L19.371409,8.42848528 C19.371409,7.05590926 18.8280426,5.81133963 17.9165162,4.91076361" id="Fill-1" fill="url(#linearGradient-1)"></path>
        </g>
        <rect id="Rectangle-4" fill="url(#linearGradient-2)" x="0" y="0" width="128" height="128"></rect>
        <path d="M86.8760869,41.2821657 L75.033707,58.0074861 C75.9667,59.8029415 76.5444925,61.8185943 76.5444925,63.9963704 C76.5444925,71.0935007 70.9110149,76.8500889 63.963296,76.8500889 C57.013209,76.8500889 51.3797314,71.0935007 51.3797314,63.9963704 C51.3797314,56.8944005 57.013209,51.1378124 63.963296,51.1378124 C64.3848004,51.1378124 64.7826248,51.2225037 65.1946572,51.2660592 L76.999149,34.5939733 C73.0919451,32.9291845 68.7348207,32 64.0556481,32 C45.6396936,32 32,46.5185073 32,64.0592839 L32,64.2891603 C32,81.7137888 45.5283975,96 63.8283198,96 C82.3555704,96 96,81.4814927 96,64.0592839 L96,63.824568 C96,55.0287724 92.5924446,47.0532723 86.8760869,41.2821657" id="Icon" fill="url(#linearGradient-3)"></path>
    </g>
</svg>